<svg xmlns="http://www.w3.org/2000/svg" version="1.0" preserveAspectRatio="xMidYMid meet" viewBox="30 98.38 839 903.63">
<g transform="translate(0.000000,1032.000000) scale(0.100000,-0.100000)" fill="#000000" stroke="none">
<path d="M1415 9329 c-201 -11 -350 -25 -595 -55 -233 -30 -243 -31 -251 -33 -4 0 -66 -71 -138 -157 l-131 -155 0 -4117 0 -4116 133 -133 133 -133 217 0 217 0 0 -49 c0 -85 -23 -81 502 -81 518 0 478 -7 478 84 l0 46 776 0 c501 0 782 -4 794 -10 26 -14 1880 -14 1894 0 7 7 272 10 788 10 l778 0 0 -49 c0 -86 -30 -81 486 -81 295 0 462 4 475 10 15 9 19 22 19 65 l0 54 220 3 220 3 130 130 130 130 0 4055 c0 2230 0 4083 0 4117 l0 63 -126 150 c-118 140 -154 176 -166 164 -3 -2 -47 2 -99 10 -128 21 -318 44 -523 63 -154 15 -478 17 -3191 19 -1661 1 -3087 -2 -3170 -7z m4690 -32 c1657 -4 1601 -2 2045 -58 237 -30 234 -29 238 -64 3 -44 -8 -55 -82 -75 -215 -60 -757 -48 -1601 35 -738 72 -1002 88 -1765 105 -856 19 -1742 -15 -2605 -100 -903 -89 -1458 -102 -1662 -39 l-63 20 0 44 c0 50 -12 45 165 69 244 34 583 62 820 69 80 2 1605 0 4510 -6z m-680 -117 c362 -16 969 -58 1103 -76 l42 -5 0 -135 c0 -125 -1 -134 -19 -134 -11 0 -129 11 -263 25 -617 62 -1018 80 -1793 80 -843 0 -1249 -21 -2012 -101 l-63 -7 0 136 0 136 33 5 c46 8 483 44 677 55 150 9 581 27 855 35 205 6 1209 -4 1440 -14z m-3037 -215 c1 -71 -1 -132 -6 -137 -12 -12 -272 -40 -663 -74 -366 -31 -959 -44 -1130 -25 -102 12 -239 53 -239 72 0 17 212 274 224 272 6 -1 47 -12 91 -25 77 -21 96 -22 500 -22 422 0 659 12 1080 58 66 7 125 12 130 11 6 -1 11 -55 13 -130z m4382 115 c383 -37 644 -52 977 -57 408 -6 552 5 664 51 11 5 44 -30 123 -129 90 -113 106 -138 96 -150 -18 -22 -132 -53 -235 -65 -272 -30 -1027 5 -1635 75 -69 8 -131 15 -137 15 -10 0 -13 35 -13 140 l0 140 28 -5 c15 -3 74 -9 132 -15z m-1695 -200 c342 -11 739 -33 995 -55 201 -18 445 -43 478 -50 l22 -5 0 -810 0 -810 -2072 2 -2073 3 -3 807 -2 808 22 4 c58 13 606 60 938 81 507 33 1162 42 1695 25z m-2690 -920 l0 -805 -1022 -3 -1023 -2 0 177 c0 151 2 174 14 158 33 -45 76 23 56 90 -17 55 -28 67 -51 54 -18 -9 -19 -5 -19 57 0 63 1 66 18 52 23 -21 39 -13 51 25 8 24 8 44 -2 77 -11 39 -17 45 -40 45 -27 -1 -27 0 -27 69 0 61 2 68 14 51 33 -45 76 23 56 90 -16 52 -28 67 -51 60 -17 -6 -19 0 -19 62 1 51 3 64 11 51 32 -56 81 19 58 90 -17 53 -27 64 -50 51 -18 -9 -19 -4 -19 157 0 148 2 165 16 160 99 -38 328 -66 544 -66 281 0 872 41 1295 90 88 10 167 17 175 16 13 -1 15 -98 15 -806z m4575 775 c473 -48 652 -59 1015 -59 388 -1 580 13 668 49 16 7 17 -4 17 -148 0 -86 -3 -163 -6 -171 -6 -15 -7 -15 -19 0 -11 16 -14 15 -33 -4 -16 -16 -22 -34 -22 -68 0 -62 14 -86 48 -82 25 3 27 0 30 -36 2 -22 1 -50 -3 -64 -6 -23 -7 -24 -21 -6 -14 18 -15 18 -34 -5 -13 -16 -20 -38 -20 -68 0 -61 14 -85 48 -81 26 3 27 1 30 -44 2 -26 -2 -56 -7 -65 -6 -10 -11 -12 -11 -5 0 19 -38 14 -50 -7 -29 -55 6 -174 42 -143 8 6 18 9 21 5 9 -8 9 -86 1 -107 -6 -15 -8 -15 -20 1 -35 45 -74 -81 -43 -138 7 -14 19 -19 37 -17 l27 3 0 -160 0 -160 -1022 -3 -1023 -2 0 811 0 812 58 -7 c31 -4 163 -18 292 -31z m-4572 -4807 l2 -3158 -1025 0 -1025 0 0 3153 c0 1735 3 3157 7 3160 3 4 464 6 1022 5 l1016 -3 3 -3157z m4180 0 l2 -3158 -2075 0 -2075 0 0 3153 c0 1735 3 3157 7 3160 3 4 936 6 2072 5 l2066 -3 3 -3157z m2090 0 l2 -3158 -1025 0 -1025 0 0 3160 0 3160 1023 -2 1022 -3 3 -3157z m-6270 -3345 l3 -103 -903 0 -903 0 -105 105 -105 105 1005 -2 1005 -3 3 -102z m4180 0 l3 -103 -2076 0 -2075 0 0 98 c0 54 3 102 7 105 3 4 936 6 2072 5 l2066 -3 3 -102z m1952 2 l-105 -105 -902 0 -903 0 0 105 0 105 1007 0 1008 0 -105 -105z m-6580 -185 l0 -30 -450 0 -450 0 0 30 0 30 450 0 450 0 0 -30z m6010 0 l0 -30 -450 0 -450 0 0 30 0 30 450 0 450 0 0 -30z"/>
<path d="M2551 8384 c-12 -15 -21 -39 -21 -54 0 -15 9 -39 21 -54 16 -21 29 -26 64 -26 35 0 48 5 64 26 12 15 21 39 21 54 0 15 -9 39 -21 54 -16 21 -29 26 -64 26 -35 0 -48 -5 -64 -26z"/>
<path d="M2870 8390 c-13 -13 -20 -33 -20 -60 0 -52 27 -80 76 -80 47 0 70 13 83 50 12 35 7 56 -22 88 -27 29 -89 30 -117 2z"/>
<path d="M3180 8390 c-13 -13 -20 -33 -20 -58 0 -51 29 -82 76 -82 47 0 70 14 82 50 13 36 -1 86 -28 100 -32 17 -88 12 -110 -10z"/>
<path d="M3491 8384 c-12 -15 -21 -39 -21 -54 0 -15 9 -39 21 -54 16 -21 29 -26 64 -26 35 0 48 5 64 26 12 15 21 39 21 54 0 15 -9 39 -21 54 -16 21 -29 26 -64 26 -35 0 -48 -5 -64 -26z"/>
<path d="M3810 8390 c-13 -13 -20 -33 -20 -60 0 -52 27 -80 76 -80 47 0 70 13 82 50 13 36 -1 86 -28 100 -32 17 -88 12 -110 -10z"/>
<path d="M4120 8388 c-47 -51 -12 -138 56 -138 47 0 70 14 82 50 13 36 -1 86 -28 100 -33 18 -88 12 -110 -12z"/>
<path d="M4431 8384 c-12 -15 -21 -39 -21 -54 0 -15 9 -39 21 -54 16 -21 29 -26 64 -26 35 0 48 5 64 26 12 15 21 39 21 54 0 15 -9 39 -21 54 -16 21 -29 26 -64 26 -35 0 -48 -5 -64 -26z"/>
<path d="M4750 8390 c-13 -13 -20 -33 -20 -58 0 -51 29 -82 76 -82 47 0 70 14 82 50 13 36 -1 86 -28 100 -32 17 -88 12 -110 -10z"/>
<path d="M5060 8388 c-47 -51 -11 -138 59 -138 44 0 67 14 79 50 13 36 -1 86 -28 100 -33 18 -88 12 -110 -12z"/>
<path d="M5371 8384 c-12 -15 -21 -39 -21 -54 0 -15 9 -39 21 -54 16 -21 29 -26 64 -26 35 0 48 5 64 26 12 15 21 39 21 54 0 15 -9 39 -21 54 -16 21 -29 26 -64 26 -35 0 -48 -5 -64 -26z"/>
<path d="M5690 8388 c-47 -51 -12 -138 56 -138 47 0 70 14 82 50 13 36 -1 86 -28 100 -33 18 -88 12 -110 -12z"/>
<path d="M6000 8388 c-47 -51 -11 -138 59 -138 44 0 67 14 79 50 13 36 -1 86 -28 100 -33 18 -88 12 -110 -12z"/>
<path d="M6311 8384 c-46 -59 -8 -134 68 -134 46 0 81 34 81 80 0 15 -9 39 -21 54 -16 21 -29 26 -64 26 -35 0 -48 -5 -64 -26z"/>
<path d="M2584 8150 c-55 -22 -70 -95 -29 -135 51 -52 145 -16 145 54 0 57 -66 102 -116 81z"/>
<path d="M2895 8148 c-32 -17 -45 -39 -45 -78 0 -47 33 -80 81 -80 65 1 101 56 74 114 -23 48 -69 67 -110 44z"/>
<path d="M3205 8148 c-32 -17 -45 -39 -45 -78 0 -47 33 -80 81 -80 65 1 100 55 74 116 -19 47 -68 66 -110 42z"/>
<path d="M3524 8150 c-55 -22 -70 -95 -29 -135 51 -52 145 -16 145 54 0 57 -66 102 -116 81z"/>
<path d="M3835 8148 c-51 -27 -62 -98 -22 -136 26 -25 82 -29 109 -8 47 35 40 114 -13 141 -33 18 -47 18 -74 3z"/>
<path d="M4145 8148 c-32 -17 -45 -39 -45 -78 0 -47 33 -80 81 -80 65 1 100 55 74 116 -19 47 -68 66 -110 42z"/>
<path d="M4464 8150 c-55 -22 -70 -95 -29 -135 51 -52 145 -16 145 54 0 57 -66 102 -116 81z"/>
<path d="M4775 8148 c-32 -17 -45 -39 -45 -78 0 -47 33 -80 81 -80 65 1 100 55 74 116 -19 47 -68 66 -110 42z"/>
<path d="M5085 8148 c-51 -27 -62 -98 -22 -136 27 -25 82 -29 110 -8 78 60 -2 192 -88 144z"/>
<path d="M5404 8150 c-55 -22 -70 -95 -29 -135 53 -53 145 -16 145 58 0 56 -65 99 -116 77z"/>
<path d="M5715 8148 c-32 -17 -45 -39 -45 -78 0 -47 33 -80 81 -80 65 1 100 55 74 116 -19 47 -68 66 -110 42z"/>
<path d="M6025 8149 c-51 -29 -62 -99 -22 -137 26 -25 82 -29 109 -8 40 30 44 98 9 130 -23 21 -72 29 -96 15z"/>
<path d="M6343 8150 c-35 -15 -56 -55 -49 -95 18 -97 166 -81 166 18 0 56 -65 99 -117 77z"/>
<path d="M2555 7865 c-52 -51 -14 -139 60 -139 29 0 43 7 61 28 49 56 13 136 -61 136 -25 0 -44 -8 -60 -25z"/>
<path d="M2872 7867 c-23 -25 -29 -75 -12 -107 5 -10 24 -23 41 -29 85 -30 148 70 86 137 -28 30 -86 30 -115 -1z"/>
<path d="M3182 7867 c-23 -25 -29 -75 -12 -107 15 -27 64 -41 101 -28 59 20 72 120 19 148 -34 18 -85 12 -108 -13z"/>
<path d="M3495 7865 c-32 -31 -32 -75 -1 -111 70 -83 192 24 125 110 -28 36 -89 37 -124 1z"/>
<path d="M3812 7867 c-23 -25 -29 -75 -12 -107 15 -27 64 -41 101 -28 59 20 72 120 19 148 -34 18 -85 12 -108 -13z"/>
<path d="M4122 7867 c-23 -25 -29 -75 -12 -107 15 -27 64 -41 101 -28 59 20 72 120 19 148 -34 18 -85 12 -108 -13z"/>
<path d="M4435 7865 c-32 -31 -32 -75 -1 -111 70 -83 192 24 125 110 -28 36 -89 37 -124 1z"/>
<path d="M4752 7867 c-23 -25 -29 -75 -12 -107 15 -27 64 -41 101 -28 59 20 72 120 19 148 -34 18 -85 12 -108 -13z"/>
<path d="M5062 7867 c-23 -25 -29 -75 -12 -107 15 -27 64 -41 101 -28 59 20 72 120 19 148 -34 18 -85 12 -108 -13z"/>
<path d="M5375 7865 c-32 -31 -32 -75 -1 -111 70 -83 192 24 125 110 -28 36 -89 37 -124 1z"/>
<path d="M5692 7867 c-23 -25 -29 -75 -12 -107 15 -27 64 -41 101 -28 59 20 72 120 19 148 -34 18 -85 12 -108 -13z"/>
<path d="M6002 7867 c-23 -25 -29 -75 -12 -107 5 -10 23 -23 40 -28 69 -25 132 35 110 104 -13 40 -35 54 -83 54 -22 0 -41 -8 -55 -23z"/>
<path d="M6315 7865 c-32 -31 -32 -75 -1 -111 70 -83 192 24 125 110 -28 36 -89 37 -124 1z"/>
<path d="M2593 7632 c-30 -5 -63 -48 -63 -84 0 -71 105 -108 149 -52 52 66 -1 149 -86 136z"/>
<path d="M2894 7626 c-78 -34 -51 -156 35 -156 45 0 67 14 80 50 24 71 -46 135 -115 106z"/>
<path d="M3204 7626 c-78 -34 -51 -156 35 -156 44 0 67 14 79 50 16 45 -2 89 -44 106 -39 16 -32 16 -70 0z"/>
<path d="M3533 7632 c-30 -5 -63 -48 -63 -84 0 -71 105 -108 149 -52 52 66 -1 149 -86 136z"/>
<path d="M3834 7626 c-78 -34 -51 -156 35 -156 44 0 67 14 79 50 16 45 -2 89 -44 106 -39 16 -32 16 -70 0z"/>
<path d="M4144 7626 c-78 -34 -51 -156 35 -156 44 0 67 14 79 50 16 45 -2 89 -44 106 -39 16 -32 16 -70 0z"/>
<path d="M4473 7632 c-30 -5 -63 -48 -63 -84 0 -71 105 -108 149 -52 52 66 -1 149 -86 136z"/>
<path d="M4774 7626 c-78 -34 -51 -156 35 -156 44 0 67 14 79 50 16 45 -2 89 -44 106 -39 16 -32 16 -70 0z"/>
<path d="M5084 7626 c-78 -34 -51 -156 35 -156 44 0 67 14 79 50 16 45 -2 89 -44 106 -39 16 -32 16 -70 0z"/>
<path d="M5413 7632 c-30 -5 -63 -48 -63 -84 0 -71 105 -108 149 -52 52 66 -1 149 -86 136z"/>
<path d="M5714 7626 c-78 -34 -51 -156 35 -156 44 0 67 14 79 50 16 45 -2 89 -44 106 -39 16 -32 16 -70 0z"/>
<path d="M6024 7626 c-78 -34 -51 -156 35 -156 46 0 68 15 81 54 15 46 -7 89 -51 105 -18 6 -32 11 -33 11 -1 -1 -15 -7 -32 -14z"/>
<path d="M6353 7632 c-30 -5 -63 -48 -63 -84 0 -71 105 -108 149 -52 52 66 -1 149 -86 136z"/>
<path d="M800 8407 c-32 -16 -44 -56 -31 -105 19 -70 85 -74 110 -7 15 43 5 80 -28 104 -23 17 -31 18 -51 8z"/>
<path d="M999 8389 c-31 -31 -24 -105 14 -133 26 -19 30 -19 55 -5 38 21 54 58 42 98 -17 60 -72 79 -111 40z"/>
<path d="M1245 8386 c-28 -42 -30 -91 -6 -115 32 -32 68 -27 107 15 39 40 43 75 14 104 -30 30 -95 27 -115 -4z"/>
<path d="M1530 8390 c-31 -31 -27 -93 6 -119 48 -38 116 -20 134 34 13 38 0 79 -29 94 -33 18 -89 13 -111 -9z"/>
<path d="M1860 8390 c-13 -13 -20 -33 -20 -60 0 -53 27 -80 80 -80 53 0 80 27 80 78 0 27 -7 45 -23 60 -30 29 -89 30 -117 2z"/>
<path d="M2209 8400 c-29 -17 -43 -66 -29 -100 15 -37 37 -50 83 -50 69 0 105 90 54 138 -25 23 -79 29 -108 12z"/>
<path d="M783 8134 c-22 -22 -24 -31 -19 -67 14 -84 75 -104 109 -35 16 33 17 40 3 71 -12 31 -41 57 -61 57 -3 0 -17 -12 -32 -26z"/>
<path d="M1020 8147 c-57 -29 -55 -128 3 -155 24 -12 31 -11 53 3 35 23 47 60 33 102 -14 43 -55 67 -89 50z"/>
<path d="M1270 8147 c-33 -17 -57 -79 -42 -112 36 -80 152 -34 152 59 0 42 -67 75 -110 53z"/>
<path d="M1555 8149 c-33 -19 -45 -41 -45 -79 0 -44 23 -69 72 -76 73 -12 124 84 72 136 -24 25 -73 34 -99 19z"/>
<path d="M1885 8148 c-51 -27 -62 -98 -22 -136 53 -50 137 -13 137 59 -1 38 -14 60 -47 77 -27 15 -42 15 -68 0z"/>
<path d="M2220 8147 c-38 -19 -54 -60 -40 -102 13 -41 35 -55 83 -55 43 0 77 34 77 77 0 45 -9 62 -41 78 -34 18 -47 18 -79 2z"/>
<path d="M782 7878 c-46 -59 3 -179 61 -146 26 14 49 67 43 94 -13 52 -78 84 -104 52z"/>
<path d="M1007 7878 c-21 -16 -35 -65 -28 -97 4 -13 18 -33 33 -44 23 -17 31 -18 56 -8 54 23 63 90 19 139 -23 25 -54 28 -80 10z"/>
<path d="M1244 7865 c-35 -54 -10 -135 42 -135 55 0 94 42 94 101 0 55 -105 82 -136 34z"/>
<path d="M1532 7870 c-33 -31 -30 -92 4 -119 72 -57 171 17 130 97 -8 16 -23 32 -31 36 -33 12 -82 6 -103 -14z"/>
<path d="M1862 7867 c-23 -25 -29 -75 -12 -107 14 -27 64 -41 100 -28 53 18 67 83 29 132 -27 35 -86 36 -117 3z"/>
<path d="M2200 7870 c-65 -65 3 -169 90 -138 36 12 50 35 50 81 0 67 -92 105 -140 57z"/>
<path d="M785 7615 c-27 -27 -30 -42 -15 -96 19 -66 85 -69 108 -5 15 41 1 88 -33 110 -31 20 -31 20 -60 -9z"/>
<path d="M1282 7632 c-26 -4 -49 -35 -58 -78 -14 -69 70 -111 121 -60 65 65 25 152 -63 138z"/>
<path d="M1554 7626 c-35 -15 -44 -32 -44 -81 0 -40 38 -75 80 -75 58 0 106 72 80 120 -6 12 -27 28 -45 36 -40 16 -33 16 -71 0z"/>
<path d="M1884 7626 c-35 -15 -44 -32 -44 -82 0 -47 29 -74 80 -74 53 0 80 27 80 78 0 64 -58 103 -116 78z"/>
<path d="M2223 7625 c-41 -17 -60 -64 -43 -105 35 -84 161 -60 160 31 0 19 -7 42 -14 52 -21 27 -67 37 -103 22z"/>
<path d="M1012 7614 c-35 -24 -44 -59 -27 -99 19 -47 55 -64 90 -41 50 33 53 100 7 136 -30 24 -41 25 -70 4z"/>
<path d="M8154 8407 c-10 -5 -25 -17 -31 -25 -18 -22 -16 -83 3 -110 33 -48 104 -12 104 52 0 71 -32 106 -76 83z"/>
<path d="M6671 8384 c-45 -57 -11 -134 59 -134 49 0 79 25 86 72 5 30 2 41 -19 62 -37 37 -97 36 -126 0z"/>
<path d="M7015 8385 c-54 -53 -15 -135 64 -135 31 0 44 6 60 26 45 57 8 134 -64 134 -25 0 -44 -8 -60 -25z"/>
<path d="M7341 8384 c-30 -38 -28 -87 5 -113 54 -42 127 -13 140 56 6 32 3 40 -20 60 -39 33 -98 32 -125 -3z"/>
<path d="M7631 8384 c-25 -31 -26 -55 -6 -93 21 -42 71 -55 108 -27 26 20 41 80 26 108 -16 31 -28 38 -71 38 -28 0 -42 -6 -57 -26z"/>
<path d="M7897 8392 c-41 -45 -4 -142 53 -142 61 0 86 74 45 137 -19 29 -74 32 -98 5z"/>
<path d="M6701 8149 c-34 -14 -50 -39 -51 -77 0 -84 117 -115 155 -41 21 39 19 64 -7 93 -27 30 -63 39 -97 25z"/>
<path d="M7040 8147 c-79 -40 -53 -157 35 -157 73 0 110 80 63 134 -28 31 -65 40 -98 23z"/>
<path d="M7365 8149 c-33 -19 -45 -41 -45 -79 0 -44 23 -69 72 -76 73 -12 124 84 72 136 -24 25 -73 34 -99 19z"/>
<path d="M7664 8150 c-12 -5 -29 -19 -38 -32 -54 -77 52 -169 119 -102 21 22 20 97 -2 116 -25 22 -54 28 -79 18z"/>
<path d="M7930 8153 c-56 -21 -69 -95 -25 -139 32 -32 71 -29 98 8 18 24 19 32 9 67 -10 31 -49 74 -64 70 -2 0 -10 -3 -18 -6z"/>
<path d="M8147 8149 c-31 -18 -48 -72 -36 -108 13 -38 40 -54 75 -45 28 7 44 38 44 88 0 54 -44 88 -83 65z"/>
<path d="M6671 7864 c-69 -87 54 -193 126 -109 49 56 10 135 -67 135 -30 0 -43 -6 -59 -26z"/>
<path d="M7021 7873 c-12 -10 -24 -34 -27 -54 -13 -78 82 -125 141 -69 75 71 -34 188 -114 123z"/>
<path d="M7342 7870 c-33 -31 -30 -92 4 -119 72 -57 171 17 130 97 -8 16 -23 32 -31 36 -33 12 -82 6 -103 -14z"/>
<path d="M7639 7872 c-33 -28 -34 -96 0 -123 48 -39 105 -19 121 43 10 36 9 44 -8 67 -25 34 -79 40 -113 13z"/>
<path d="M7897 7872 c-25 -28 -22 -94 6 -119 31 -29 48 -32 79 -17 43 22 48 76 12 132 -18 28 -73 30 -97 4z"/>
<path d="M8126 7868 c-35 -50 -9 -138 40 -138 53 0 80 67 54 134 -13 35 -71 37 -94 4z"/>
<path d="M6715 7632 c-35 -7 -65 -43 -65 -77 0 -49 33 -85 80 -85 48 0 79 25 86 70 10 59 -40 104 -101 92z"/>
<path d="M7053 7632 c-37 -5 -66 -51 -59 -92 7 -45 38 -70 86 -70 30 0 43 6 59 26 52 66 -1 149 -86 136z"/>
<path d="M7364 7626 c-35 -15 -44 -32 -44 -81 0 -64 79 -97 133 -55 51 40 42 111 -18 135 -40 18 -33 17 -71 1z"/>
<path d="M7673 7632 c-27 -4 -63 -47 -63 -74 0 -45 39 -87 80 -87 35 0 59 21 70 60 19 63 -23 111 -87 101z"/>
<path d="M8143 7622 c-37 -29 -46 -69 -26 -111 20 -40 55 -52 87 -28 24 18 34 104 14 128 -20 26 -51 30 -75 11z"/>
<path d="M7902 7614 c-50 -35 -13 -144 48 -144 65 0 88 84 38 137 -25 27 -55 29 -86 7z"/>
<path d="M4517 2463 c-4 -3 -7 -149 -7 -324 l0 -317 42 -36 c40 -35 118 -66 163 -66 41 0 120 30 163 61 l42 31 0 188 0 188 -32 28 c-61 51 -113 67 -195 60 l-73 -6 0 100 0 100 -48 0 c-27 0 -52 -3 -55 -7z m277 -308 c26 -17 26 -18 26 -156 l0 -138 -30 -16 c-34 -18 -84 -19 -129 -4 l-31 11 0 148 0 148 38 16 c43 18 89 15 126 -9z"/>
<path d="M3396 2265 c-21 -7 -55 -27 -75 -43 -31 -25 -36 -36 -39 -77 -4 -53 6 -65 50 -65 43 0 58 10 58 40 0 22 7 31 34 44 68 32 146 9 146 -43 0 -35 -22 -45 -134 -60 -130 -18 -157 -44 -164 -159 -4 -70 -3 -74 24 -104 94 -100 261 -103 362 -5 l32 31 0 177 c0 203 -2 208 -92 253 -59 30 -138 34 -202 11z m152 -419 c-18 -14 -34 -17 -75 -14 -67 6 -83 20 -83 74 0 49 -3 47 115 68 l60 11 3 -60 c3 -52 0 -62 -20 -79z"/>
<path d="M3855 2261 c-22 -10 -55 -30 -73 -45 l-32 -28 2 -227 3 -226 50 0 50 0 3 207 2 208 30 15 c16 8 43 15 60 15 17 0 44 -7 60 -15 l30 -15 2 -208 3 -207 50 0 50 0 3 202 2 202 27 20 c31 25 82 27 123 6 l30 -15 2 -208 3 -207 50 0 50 0 3 226 2 227 -32 28 c-58 48 -114 67 -184 61 -38 -3 -76 -12 -94 -24 l-31 -20 -46 24 c-58 29 -140 31 -198 4z"/>
<path d="M5115 2267 c-47 -18 -104 -57 -115 -77 -6 -10 -10 -99 -10 -199 l0 -179 42 -37 c79 -67 181 -79 273 -33 68 34 95 66 95 114 0 51 -16 66 -67 62 -33 -3 -38 -7 -41 -29 -7 -57 -85 -85 -155 -56 -31 14 -37 21 -37 46 0 42 27 56 130 71 145 20 170 44 170 161 0 75 -1 78 -32 105 -71 60 -176 81 -253 51z m151 -112 c18 -11 24 -25 24 -50 0 -18 -5 -37 -11 -40 -6 -4 -41 -11 -77 -15 -37 -5 -75 -12 -85 -16 -16 -6 -18 -1 -15 52 3 56 5 60 38 77 39 20 88 17 126 -8z"/>
<path d="M5593 2267 c-17 -7 -52 -27 -78 -44 l-45 -33 2 -227 3 -228 50 0 50 0 5 205 5 205 39 19 c33 16 47 18 88 9 58 -12 71 -2 66 53 -2 31 -8 40 -28 45 -39 11 -122 9 -157 -4z"/>
</g>
</svg>