<!-- Generated by IcoMoon.io -->
<svg version="1.1" xmlns="http://www.w3.org/2000/svg" width="1024" height="1024" viewBox="0 0 1024 1024">
<title></title>
<g id="icomoon-ignore">
</g>
<path d="M107 862q0 18 12.5 30.5t29.5 12.5v0h12l6 21q2 4 4 7t5 3h133q4 0 5.5-2.5t3.5-7.5l6-21h376l6 21 3.5 7t5.5 3h133q3 0 5-2.5t4-7.5l6-21h12q17 0 29.5-12.5t12.5-30.5v0-10h-810v10zM875 88h-726l-42 43v66q4 0 7 5.5t3 13.5-3 13.5-7 5.5v18q4 0 7 6t3 14-3 13.5-7 5.5v28l9 10h794l7-10v-28q-4 0-7-5.5t-3-13.5 3-13.5 7-5.5v-19q-4 0-7-6t-3-14 3-13.5 7-5.5v-65zM176 292q-9 0-15.5-6.5t-6.5-14.5q0-9 6.5-15.5t15.5-6.5q8 0 14.5 6.5t6.5 15.5v0q0 8-6.5 14.5t-14.5 6.5v0zM176 228q-9 0-15.5-6.5t-6.5-14.5q0-9 6.5-15.5t15.5-6.5q8 0 14.5 6.5t6.5 15.5v0q0 8-6.5 14.5t-14.5 6.5v0zM256 292q-10 0-17-7t-7-17 7-17 17-7 17 7 7 17v0 0 0q0 10-7 17t-17 7v0 0 0 0zM256 221q-10 0-17-7t-7-17 7-17 17-7 17 7 7 17v0 0 0q0 10-7 17t-17 7v0 0 0 0zM342 292q-10 0-17-7t-7-17 7-17 17-7q9 0 16 7t7 17v0 0 0q0 10-7 17t-16 7v0zM342 221q-10 0-17-7t-7-17 7-17 17-7q9 0 16 7t7 17v0 0 0q0 10-7 17t-16 7v0zM427 292q-10 0-16.5-7t-6.5-16q0-10 7-17t17-7q9 0 16 7t7 17q0 9-6.5 16t-16.5 7v0h-1zM427 221q-10-1-17-8t-7-17 7-17.5 18-7.5q10 0 17 7.5t7 17.5-7 17-17 8v0h-1zM512 292q-9-1-15.5-7.5t-6.5-15.5 7-16 16-7q10 0 16.5 7t6.5 16-6.5 15.5-15.5 7.5v0h-2zM512 221q-9-1-15.5-7.5t-6.5-15.5 7-16 16-7q10 0 16.5 7t6.5 16-6.5 15.5-15.5 7.5v0h-2zM598 292q-10 0-17-7t-7-17 7-17 17-7q9 0 16 7t7 17v0q0 9-6 16t-15 8v0h-2zM598 221q-10 0-17-7t-7-17 7-17 17-7q9 0 16 7t7 17v0q0 9-6 16t-15 8v0h-2zM683 292q-10 0-17-7t-7-17 7-17 17-7 17 7 7 17v0q0 9-6 16t-15 8h-3zM683 221q-10-1-17-8.5t-7-17.5q0-11 7.5-18.5t18.5-7.5q10 0 18 7.5t8 18.5q0 10-7 17.5t-17 8.5v0h-4zM768 292q-10 0-17-7t-7-17 7-17 17-7 17 7 7 17v0 0 0q0 9-5.5 15.5t-13.5 8.5v0h-5zM768 221q-10 0-17-7t-7-17 7-17 17-7 17 7 7 17v0 0 0q0 9-5.5 15.5t-13.5 8.5v0h-5zM854 292q-9 0-15.5-6.5t-6.5-14.5q0-9 6.5-15.5t15.5-6.5q8 0 14.5 6.5t6.5 15.5v0 0 0q0 8-6.5 14.5t-14.5 6.5v0zM854 228q-9 0-15.5-6.5t-6.5-14.5q0-9 6.5-15.5t15.5-6.5q8 0 14.5 6.5t6.5 15.5v0q0 8-6.5 14.5t-14.5 6.5v0zM411 761v5q1 1 2 1t3-1l2-2v-5h-3q-1 0-2 0.5t-2 1.5v0 0zM527 765h3q2 0 3-1t1-2v0q1-1 1.5-3t0.5-4v-2q0-2-1-4.5t-2-4.5v1q0-2-1-2.5t-2-0.5h-1q-1 0-2 0.5t-2 1.5v0q-1 2-1.5 4t-0.5 4v9l4 4zM419 745v-2h-6l-1.5 1.5t-0.5 1.5v0 2h1q2-1 3.5-1.5t3.5-1.5v0 0zM578 744q-1-1-2-1.5t-2-0.5h-1.5t-0.5 1v0h-0.5t-0.5 1l-1.5 1.5t-0.5 1.5v0h10q0-1-0.5-1.5t-0.5-1.5v0 0zM107 830h810v-485h-810v485zM597 728h16v2q1-2 3-2.5t4-0.5 4 0.5 3 2.5v0l2 1-4 16-3-3q-2-1-3.5-1t-1.5 1l-2 4v31h-18v-51zM558 734q3-3 6.5-5t7.5-2h2q4 0 8 2t6 5v0q3 4 5 9t2 11v6h-10l10 2-1 3q-1 3-3 6t-5 6v0q-2 1-5 2t-7 1v0 0 0 0 0q-5 0-9-1.5t-7-4.5v0q-3-4-5-9t-2-11 2-11 5-9v0 0zM507 711h16v19h2q1-1 2.5-1.5t3.5-0.5h1q5 0 8.5 2t5.5 5v0q3 4 4.5 9t1.5 11q0 5-1.5 10t-4.5 10v-1q-2 4-5.5 5.5t-8.5 2.5v0q-2-1-4-1.5t-4-1.5v0l-2-1v2h-15v-69zM438 728h15v3l2-2q2-1 4-1.5t4-0.5 4 0.5 4 1.5v0l4 4 4-4q1-1 3.5-1.5t4.5-0.5 4 0.5 4 1.5v0q2 1 3.5 3t2.5 3v1q1 2 1 4.5v38.5h-16v-28q1-1 1-2v-4t-1-2v0h-2q-1 0-2 0.5t-1 1.5v0q-1 2-1.5 4t-0.5 5v26h-16v-37h-5q0 1-0.5 1.5l-1.5 1.5v34h-16zM394 745v-3q0-3 2-6t4-5v0q3-2 6-3t6-1h3q3 0 5.5 0.5t4.5 1.5v0q2 1 3.5 2.5t2.5 3.5v0q1 3 1.5 5t0.5 5v25q0 2 0.5 3.5t1.5 2.5v0l1 4h-16v-3l-3 2q-2 1-4 1.5t-4 0.5q-3 0-6-1.5t-6-3.5v0q-2-2-3-5t-1-6v0-1q0-2 0.5-4t1.5-4v0q1-1 2-2.5t3-2.5v0q1-1 3-2t4-1v0zM576 766q1 0 2-0.5t2-3.5v-2h-10q0 1 0.5 2t1.5 2v0q0 1 1.5 1.5t2.5 0.5v0 0 0z"></path>
</svg>
