<svg xmlns="http://www.w3.org/2000/svg" version="1.0" preserveAspectRatio="xMidYMid meet" viewBox="327.03 785 250.87 75.56">
<g transform="translate(0.000000,1032.000000) scale(0.100000,-0.100000)" fill="#000000" stroke="none">
<path d="M4517 2463 c-4 -3 -7 -149 -7 -324 l0 -317 42 -36 c40 -35 118 -66 163 -66 41 0 120 30 163 61 l42 31 0 188 0 188 -32 28 c-61 51 -113 67 -195 60 l-73 -6 0 100 0 100 -48 0 c-27 0 -52 -3 -55 -7z m277 -308 c26 -17 26 -18 26 -156 l0 -138 -30 -16 c-34 -18 -84 -19 -129 -4 l-31 11 0 148 0 148 38 16 c43 18 89 15 126 -9z"/>
<path d="M3396 2265 c-21 -7 -55 -27 -75 -43 -31 -25 -36 -36 -39 -77 -4 -53 6 -65 50 -65 43 0 58 10 58 40 0 22 7 31 34 44 68 32 146 9 146 -43 0 -35 -22 -45 -134 -60 -130 -18 -157 -44 -164 -159 -4 -70 -3 -74 24 -104 94 -100 261 -103 362 -5 l32 31 0 177 c0 203 -2 208 -92 253 -59 30 -138 34 -202 11z m152 -419 c-18 -14 -34 -17 -75 -14 -67 6 -83 20 -83 74 0 49 -3 47 115 68 l60 11 3 -60 c3 -52 0 -62 -20 -79z"/>
<path d="M3855 2261 c-22 -10 -55 -30 -73 -45 l-32 -28 2 -227 3 -226 50 0 50 0 3 207 2 208 30 15 c16 8 43 15 60 15 17 0 44 -7 60 -15 l30 -15 2 -208 3 -207 50 0 50 0 3 202 2 202 27 20 c31 25 82 27 123 6 l30 -15 2 -208 3 -207 50 0 50 0 3 226 2 227 -32 28 c-58 48 -114 67 -184 61 -38 -3 -76 -12 -94 -24 l-31 -20 -46 24 c-58 29 -140 31 -198 4z"/>
<path d="M5115 2267 c-47 -18 -104 -57 -115 -77 -6 -10 -10 -99 -10 -199 l0 -179 42 -37 c79 -67 181 -79 273 -33 68 34 95 66 95 114 0 51 -16 66 -67 62 -33 -3 -38 -7 -41 -29 -7 -57 -85 -85 -155 -56 -31 14 -37 21 -37 46 0 42 27 56 130 71 145 20 170 44 170 161 0 75 -1 78 -32 105 -71 60 -176 81 -253 51z m151 -112 c18 -11 24 -25 24 -50 0 -18 -5 -37 -11 -40 -6 -4 -41 -11 -77 -15 -37 -5 -75 -12 -85 -16 -16 -6 -18 -1 -15 52 3 56 5 60 38 77 39 20 88 17 126 -8z"/>
<path d="M5593 2267 c-17 -7 -52 -27 -78 -44 l-45 -33 2 -227 3 -228 50 0 50 0 5 205 5 205 39 19 c33 16 47 18 88 9 58 -12 71 -2 66 53 -2 31 -8 40 -28 45 -39 11 -122 9 -157 -4z"/>
</g>
</svg>