<!-- Generated by IcoMoon.io -->
<svg version="1.1" xmlns="http://www.w3.org/2000/svg" width="1024" height="1024" viewBox="0 0 1024 1024">
<title></title>
<g id="icomoon-ignore">
</g>
<path d="M922 373q-10-33-37.5-53.5t-63.5-20.5h-620q-36 0-63.5 20.5t-37.5 53.5h822zM939 595l-13-200h-828l-13 200h854zM85 617q2 33 26 57t60 24v0 27h64v-27h64v-20q0-4 3-7t7-3q5 0 8 3t3 7v20h23v-20q0-4 3-7t8-3 8 3 3 7v20h23v-20q0-4 3-7t8-3 8 3 3 7v20h23v-20q0-4 3-7t8-3 7.5 3 2.5 7v20h24v-20q0-4 3-7t8-3q4 0 7 3t3 7v20h24v-20q0-4 3-7t7-3q5 0 8 3t3 7v20h23v-20q0-4 3-7t8-3 8 3 3 7v20h23v-20q0-4 3-7t8-3 8 3 3 7v20h23v-20q0-4 3-7t8-3 7.5 3 2.5 7v20h26v-20q0-4 3-7t8-3q4 0 7 3t3 7v20h64v27h64v-27q34 0 58-24t26-57h-852z"></path>
</svg>
